<svg xmlns="http://www.w3.org/2000/svg" width="30" height="27" viewBox="0 0 30 27"><g><g><path fill="#0099d0" d="M29.68 10.588L15.46.151a.778.778 0 0 0-.92 0L.32 10.588a.783.783 0 0 0-.17 1.092.778.778 0 0 0 1.09.17L15 1.75l13.76 10.099a.778.778 0 0 0 1.09-.169.782.782 0 0 0-.17-1.092z"/></g><g><path fill="#0099d0" d="M25.233 13a.754.754 0 0 0-.766.74v11.78h-6.133v-6.43c0-2.04-1.72-3.7-3.834-3.7s-3.834 1.66-3.834 3.7v6.43H4.533V13.74a.754.754 0 0 0-.766-.74.754.754 0 0 0-.767.74v12.52c0 .409.343.74.767.74h7.666a.756.756 0 0 0 .767-.74v-7.17c0-1.225 1.032-2.22 2.3-2.22 1.268 0 2.3.995 2.3 2.22v7.17a.756.756 0 0 0 .767.74h7.666a.754.754 0 0 0 .767-.74V13.74a.754.754 0 0 0-.767-.74z"/></g></g></svg>